# xmcd
#
# Track frame offsets: 
#        150
#        10152
#        21117
#        29665
#        37448
#        48492
#        57653
#        69421
#        79669
#        92021
#        100191
#        113115
#        125162
#        135196
#        145604
#        157956
#        169311
#        177809
#        188761
#        199874
#        212632
#        224820
#        233082
#        245308
#
# Disc length: 3423 seconds
#
# Revision: 0
# Processed by: cddbd v1.5.2PL0 Copyright (c) Steve Scherf et al.
# Submitted via: ExactAudioCopyFreeDBPlugin 1.0
#
DISCID=590d5d18
DTITLE=Cash, Johnny - The Complete Releases 1957-1962 [CD1]
DYEAR=1957
DGENRE=Country
TTITLE0=Rock Island Line
TTITLE1=I Heard That Lonesome Whistle
TTITLE2=Country Boy
TTITLE3=If The Good Lord's Willing
TTITLE4=Cry Cry Cry
TTITLE5=Remember Me I'm The One Who Loves You
TTITLE6=So Doggone Lonesome
TTITLE7=I Was There When It Happened
TTITLE8=I Walk The Line
TTITLE9=Wreck Of The Old 97
TTITLE10=Folsom Prison Blues
TTITLE11=Doin' My Time
TTITLE12=Ballad Of A Teenage Queen
TTITLE13=There You Go
TTITLE14=I Walk The Line
TTITLE15=Don't Make Me Go
TTITLE16=Guess Things Happen That Way
TTITLE17=Train Of Love
TTITLE18=The Ways Of A Women In Love
TTITLE19=Next In Line
TTITLE20=You're The Nearest Thing To Heaven
TTITLE21=I Can't Help It If I'm Still In Love With You
TTITLE22=Home Of The Blues
TTITLE23=Big River
EXTD=
EXTT0=
EXTT1=
EXTT2=
EXTT3=
EXTT4=
EXTT5=
EXTT6=
EXTT7=
EXTT8=
EXTT9=
EXTT10=
EXTT11=
EXTT12=
EXTT13=
EXTT14=
EXTT15=
EXTT16=
EXTT17=
EXTT18=
EXTT19=
EXTT20=
EXTT21=
EXTT22=
EXTT23=
PLAYORDER=
